<?xml version="1.0" encoding="UTF-8"?>
<svg width="631px" height="502px" viewBox="0 0 631 502" version="1.1" xmlns="http://www.w3.org/2000/svg" xmlns:xlink="http://www.w3.org/1999/xlink">
    <!-- Generator: Sketch 62 (91390) - https://sketch.com -->
    <title>Group 3</title>
    <desc>Created with Sketch.</desc>
    <g id="Page-1" stroke="none" stroke-width="1" fill="none" fill-rule="evenodd">
        <g id="Group-3" transform="translate(1.000000, 0.000000)">
            <g id="document" transform="translate(50.000000, 0.000000)" fill="#000000">
                <path d="M51,68 L0,68 L0,0 L35.7,0 L51,17 L51,68 Z M33.15,2.83333333 L2.55,2.83333333 L2.55,65.1666667 L48.45,65.1666667 L48.45,19.8333333 L33.15,19.8333333 L33.15,2.83333333 Z M40.8,45.3333333 L40.8,48.1666667 L10.2,48.1666667 L10.2,45.3333333 L40.8,45.3333333 Z M40.8,36.8333333 L40.8,39.6666667 L10.2,39.6666667 L10.2,36.8333333 L40.8,36.8333333 Z M40.8,28.3333333 L40.8,31.1666667 L10.2,31.1666667 L10.2,28.3333333 L40.8,28.3333333 Z M35.7,17 L47.3943,17 L35.7,4.00633333 L35.7,17 L35.7,17 Z" id="Shape"></path>
            </g>
            <g id="document" transform="translate(468.000000, 0.000000)" fill="#000000">
                <path d="M51,68 L0,68 L0,0 L35.7,0 L51,17 L51,68 Z M33.15,2.83333333 L2.55,2.83333333 L2.55,65.1666667 L48.45,65.1666667 L48.45,19.8333333 L33.15,19.8333333 L33.15,2.83333333 Z M40.8,45.3333333 L40.8,48.1666667 L10.2,48.1666667 L10.2,45.3333333 L40.8,45.3333333 Z M40.8,36.8333333 L40.8,39.6666667 L10.2,39.6666667 L10.2,36.8333333 L40.8,36.8333333 Z M40.8,28.3333333 L40.8,31.1666667 L10.2,31.1666667 L10.2,28.3333333 L40.8,28.3333333 Z M35.7,17 L47.3943,17 L35.7,4.00633333 L35.7,17 L35.7,17 Z" id="Shape"></path>
            </g>
            <path id="Line" d="M77,106 L77,161.932 L81.8784245,153.259739 L82.3686857,152.388163 L84.1118368,153.368686 L83.6215755,154.240261 L76.8715755,166.240261 L76,167.789729 L75.1284245,166.240261 L68.3784245,154.240261 L67.8881632,153.368686 L69.6313143,152.388163 L70.1215755,153.259739 L75,161.932 L75,106 L77,106 Z" fill="#000000" fill-rule="nonzero"></path>
            <path id="Line" d="M209.368686,317.888163 L210.240261,318.378424 L222.240261,325.128424 L223.789729,326 L222.240261,326.871576 L210.240261,333.621576 L209.368686,334.111837 L208.388163,332.368686 L209.259739,331.878424 L217.932,327 L163,327 L163,325 L217.932,325 L209.259739,320.121576 L208.388163,319.631314 L209.368686,317.888163 Z" fill="#000000" fill-rule="nonzero"></path>
            <path id="Line" d="M394.368686,317.888163 L395.240261,318.378424 L407.240261,325.128424 L408.789729,326 L407.240261,326.871576 L395.240261,333.621576 L394.368686,334.111837 L393.388163,332.368686 L394.259739,331.878424 L402.932,327 L348,327 L348,325 L402.932,325 L394.259739,320.121576 L393.388163,319.631314 L394.368686,317.888163 Z" fill="#000000" fill-rule="nonzero"></path>
            <path id="Line" d="M77,206 L77,261.932 L81.8784245,253.259739 L82.3686857,252.388163 L84.1118368,253.368686 L83.6215755,254.240261 L76.8715755,266.240261 L76,267.789729 L75.1284245,266.240261 L68.3784245,254.240261 L67.8881632,253.368686 L69.6313143,252.388163 L70.1215755,253.259739 L75,261.932 L75,206 L77,206 Z" fill="#000000" fill-rule="nonzero"></path>
            <path id="Line" d="M495,106 L495,161.932 L499.878424,153.259739 L500.368686,152.388163 L502.111837,153.368686 L501.621576,154.240261 L494.871576,166.240261 L494,167.789729 L493.128424,166.240261 L486.378424,154.240261 L485.888163,153.368686 L487.631314,152.388163 L488.121576,153.259739 L493,161.932 L493,106 L495,106 Z" fill="#000000" fill-rule="nonzero"></path>
            <text id="Guarding-Rules" font-family="PingFangSC-Semibold, PingFang SC" font-size="16" font-weight="500" fill="#000000">
                <tspan x="17" y="91">Guarding Rules</tspan>
            </text>
            <text id="Source-Code" font-family="PingFangSC-Semibold, PingFang SC" font-size="16" font-weight="500" fill="#000000">
                <tspan x="444" y="91">Source Code</tspan>
            </text>
            <text id="Tree-sitter" font-family="PingFangSC-Semibold, PingFang SC" font-size="16" font-weight="500" fill="#000000">
                <tspan x="455" y="194">Tree sitter</tspan>
            </text>
            <text id="Guarding-Prarser" font-family="PingFangSC-Semibold, PingFang SC" font-size="16" font-weight="500" fill="#000000">
                <tspan x="11" y="194">Guarding Prarser</tspan>
            </text>
            <g id="tree_node" transform="translate(0.000000, 279.000000)" stroke="#4A4A4A" stroke-width="2">
                <ellipse id="Oval" fill="#D8D8D8" cx="76" cy="46.5" rx="76" ry="46.5"></ellipse>
                <line x1="76.3703704" y1="24.3793103" x2="95.6296296" y2="45.6206897" id="Line-2" stroke-linecap="square"></line>
                <line x1="98.3703704" y1="48.3793103" x2="117.62963" y2="69.6206897" id="Line-2" stroke-linecap="square"></line>
                <line x1="95.6296296" y1="45.3676471" x2="76.3703704" y2="69.6323529" id="Line-2" stroke-linecap="square"></line>
                <line x1="66.6296296" y1="22.3676471" x2="47.3703704" y2="46.6323529" id="Line-2" stroke-linecap="square"></line>
                <circle id="Oval" fill="#D8D8D8" cx="68.5" cy="20.5" r="7.5"></circle>
                <circle id="Oval" fill="#D8D8D8" cx="95.5" cy="45.5" r="7.5"></circle>
                <circle id="Oval" fill="#D8D8D8" cx="73.5" cy="69.5" r="7.5"></circle>
                <circle id="Oval" fill="#D8D8D8" cx="117.5" cy="69.5" r="7.5"></circle>
                <circle id="Oval" fill="#D8D8D8" cx="46.5" cy="45.5" r="7.5"></circle>
            </g>
            <path id="Line" d="M495,206.5 L495,262.432 L499.878424,253.759739 L500.368686,252.888163 L502.111837,253.868686 L501.621576,254.740261 L494.871576,266.740261 L494,268.289729 L493.128424,266.740261 L486.378424,254.740261 L485.888163,253.868686 L487.631314,252.888163 L488.121576,253.759739 L493,262.432 L493,206.5 L495,206.5 Z" fill="#000000" fill-rule="nonzero"></path>
            <path id="Line" d="M286,381 L286,436.932 L290.878424,428.259739 L291.368686,427.388163 L293.111837,428.368686 L292.621576,429.240261 L285.871576,441.240261 L285,442.789729 L284.128424,441.240261 L277.378424,429.240261 L276.888163,428.368686 L278.631314,427.388163 L279.121576,428.259739 L284,436.932 L284,381 L286,381 Z" fill="#000000" fill-rule="nonzero"></path>
            <g id="tree_node" transform="translate(418.000000, 279.000000)" stroke="#4A4A4A" stroke-width="2">
                <ellipse id="Oval" fill="#D8D8D8" cx="76" cy="46.5" rx="76" ry="46.5"></ellipse>
                <line x1="76.3703704" y1="24.3793103" x2="95.6296296" y2="45.6206897" id="Line-2" stroke-linecap="square"></line>
                <line x1="98.3703704" y1="48.3793103" x2="117.62963" y2="69.6206897" id="Line-2" stroke-linecap="square"></line>
                <line x1="95.6296296" y1="45.3676471" x2="76.3703704" y2="69.6323529" id="Line-2" stroke-linecap="square"></line>
                <line x1="66.6296296" y1="22.3676471" x2="47.3703704" y2="46.6323529" id="Line-2" stroke-linecap="square"></line>
                <circle id="Oval" fill="#D8D8D8" cx="68.5" cy="20.5" r="7.5"></circle>
                <circle id="Oval" fill="#D8D8D8" cx="95.5" cy="45.5" r="7.5"></circle>
                <circle id="Oval" fill="#D8D8D8" cx="73.5" cy="69.5" r="7.5"></circle>
                <circle id="Oval" fill="#D8D8D8" cx="117.5" cy="69.5" r="7.5"></circle>
                <circle id="Oval" fill="#D8D8D8" cx="46.5" cy="45.5" r="7.5"></circle>
            </g>
            <text id="S-expressions" font-family="PingFangSC-Semibold, PingFang SC" font-size="16" font-weight="500" fill="#000000">
                <tspan x="519" y="234">S-expressions</tspan>
            </text>
            <g id="Group-2" transform="translate(233.000000, 279.000000)">
                <rect id="Rectangle" stroke="#4A4A4A" stroke-width="2" fill="#D8D8D8" x="0" y="0" width="104" height="93" rx="8"></rect>
                <text id="Executor" font-family="PingFangSC-Semibold, PingFang SC" font-size="16" font-weight="500" fill="#000000">
                    <tspan x="19" y="53">Executor</tspan>
                </text>
            </g>
            <g id="Group" transform="translate(233.000000, 450.000000)">
                <rect id="Rectangle" stroke="#4A4A4A" stroke-width="2" fill="#D8D8D8" x="0" y="0" width="104" height="51" rx="8"></rect>
                <text id="Results" font-family="PingFangSC-Semibold, PingFang SC" font-size="16" font-weight="500" fill="#000000">
                    <tspan x="24" y="32">Results</tspan>
                </text>
            </g>
        </g>
    </g>
</svg>